<?xml version="1.0" standalone="no"?>
<!DOCTYPE svg PUBLIC "-//W3C//DTD SVG 20010904//EN"
 "http://www.w3.org/TR/2001/REC-SVG-20010904/DTD/svg10.dtd">
<svg version="1.0" xmlns="http://www.w3.org/2000/svg"
 width="260.000000pt" height="260.000000pt" viewBox="0 0 260.000000 260.000000"
 preserveAspectRatio="xMidYMid meet">
<metadata>
Created by potrace 1.14, written by Peter Selinger 2001-2017
</metadata>
<g transform="translate(0.000000,260.000000) scale(0.100000,-0.100000)"
fill="#000000" stroke="none">
<path d="M1150 2593 c-87 -13 -196 -39 -265 -63 -90 -30 -215 -88 -215 -98 0
-4 207 -6 459 -5 399 2 461 0 472 -13 8 -10 13 -53 14 -121 1 -91 -1 -109 -17
-125 -17 -17 -47 -18 -480 -18 l-463 0 2 -607 c1 -515 -1 -611 -13 -631 -14
-21 -21 -22 -124 -22 -81 0 -112 4 -123 15 -12 12 -15 106 -15 632 0 340 -1
633 -1 652 l-1 34 -37 -43 c-183 -206 -291 -436 -331 -700 -9 -58 -9 -279 0
-350 21 -183 102 -394 212 -557 113 -169 284 -324 463 -420 42 -22 209 -93
219 -93 2 0 4 280 4 623 0 471 3 626 12 635 9 9 138 12 518 12 421 0 509 -2
526 -14 18 -14 19 -29 20 -248 0 -128 3 -238 7 -244 3 -6 25 -10 47 -9 27 1
49 -4 63 -15 20 -17 21 -25 21 -256 1 -132 5 -238 10 -238 15 3 127 117 185
189 123 154 235 397 256 555 2 19 9 58 14 85 10 52 8 308 -3 360 -4 17 -11 53
-16 80 -36 178 -154 423 -265 550 -228 260 -471 399 -805 460 -40 8 -312 14
-350 8z m926 -698 c91 -45 125 -150 78 -242 -82 -165 -324 -118 -342 67 -5 60
23 125 69 159 63 47 124 52 195 16z m-624 -43 c18 -18 16 -241 -3 -253 -8 -5
-157 -9 -331 -9 l-318 0 -13 23 c-10 15 -13 52 -12 122 2 55 3 104 4 108 3 19
64 23 352 23 233 -1 311 -4 321 -14z"/>
<path d="M1162 540 l3 -535 53 -3 52 -4 0 74 c0 40 4 79 9 87 7 11 64 13 300
13 l291 0 -2 196 -3 195 -285 0 c-174 0 -290 4 -297 10 -9 6 -13 43 -13 119 0
94 2 110 17 115 10 4 113 7 230 7 144 0 213 3 214 10 0 6 1 65 2 131 l2 121
-288 -1 -287 0 2 -535z"/>
</g>
</svg>
