<svg width="70" height="70" viewBox="0 0 70 70" fill="none" xmlns="http://www.w3.org/2000/svg">
<g clip-path="url(#clip0_105_2)">
<path d="M61.25 36.1667V20.4167L49.5833 8.75H14.5833C11.3458 8.75 8.75 11.375 8.75 14.5833V55.4167C8.75 58.625 11.3458 61.25 14.5833 61.25H36.1667L61.25 36.1667ZM43.75 43.75C43.75 48.5917 39.8417 52.5 35 52.5C30.1583 52.5 26.25 48.5917 26.25 43.75C26.25 38.9083 30.1583 35 35 35C39.8417 35 43.75 38.9083 43.75 43.75ZM17.5 17.5H43.75V29.1667H17.5V17.5ZM58.3042 47.3958L63.4667 52.5583L48.9125 67.0833H43.75V61.9208L58.3042 47.3958ZM67.8125 48.1542L65.3333 50.6333L60.1708 45.4708L62.65 42.9917C63.2333 42.4083 64.1375 42.4083 64.7208 42.9917L67.8125 46.0833C68.3958 46.6667 68.3958 47.6 67.8125 48.1542Z" fill="white"/>
</g>
<defs>
<clipPath id="clip0_105_2">
<rect width="70" height="70" fill="white"/>
</clipPath>
</defs>
</svg>
