<svg width="70" height="70" viewBox="0 0 70 70" fill="none" xmlns="http://www.w3.org/2000/svg">
<g clip-path="url(#clip0_16_11)">
<path d="M1.56515 31.5689C0.884831 29.6998 0.974898 27.6369 1.81554 25.8341C2.65618 24.0314 4.17853 22.6364 6.04769 21.9561L48.3339 6.56518C50.203 5.88486 52.2659 5.97493 54.0686 6.81557C55.8714 7.65621 57.2664 9.17856 57.9467 11.0477L68.2073 39.2385C68.8876 41.1077 68.7976 43.1705 67.9569 44.9733C67.1163 46.7761 65.5939 48.171 63.7248 48.8514L21.4386 64.2423C19.5694 64.9226 17.5066 64.8325 15.7038 63.9919C13.9011 63.1512 12.5061 61.6289 11.8258 59.7597L1.56515 31.5689ZM7.33027 25.4799C6.39569 25.8201 5.63451 26.5176 5.21419 27.419C4.79387 28.3203 4.74884 29.3518 5.089 30.2864L6.37157 33.8102L55.7054 15.8542L54.4229 12.3303C54.0827 11.3957 53.3852 10.6345 52.4838 10.2142C51.5825 9.7939 50.551 9.74887 49.6164 10.089L7.33027 25.4799ZM58.2706 22.9018L8.93673 40.8579L15.3496 58.4771C15.6898 59.4117 16.3873 60.1729 17.2886 60.5932C18.19 61.0135 19.2214 61.0586 20.156 60.7184L62.4422 45.3275C63.3768 44.9873 64.138 44.2899 64.5583 43.3885C64.9786 42.4871 65.0236 41.4557 64.6835 40.5211L58.2706 22.9018Z" fill="#F0F8FF"/>
<path d="M16.3083 50.1467C15.9682 49.2121 16.0132 48.1806 16.4335 47.2793C16.8538 46.3779 17.615 45.6804 18.5496 45.3402L22.0735 44.0577C23.008 43.7175 24.0395 43.7625 24.9408 44.1828C25.8422 44.6032 26.5397 45.3643 26.8799 46.2989L28.1625 49.8228C28.5026 50.7574 28.4576 51.7888 28.0373 52.6902C27.6169 53.5915 26.8558 54.289 25.9212 54.6292L22.3973 55.9118C21.4627 56.2519 20.4313 56.2069 19.5299 55.7866C18.6286 55.3663 17.9311 54.6051 17.5909 53.6705L16.3083 50.1467Z" fill="#F0F8FF"/>
</g>
<defs>
<clipPath id="clip0_16_11">
<rect width="70" height="70" fill="white"/>
</clipPath>
</defs>
</svg>
